<svg xmlns="http://www.w3.org/2000/svg" viewBox="0 0 200.636 137.955">
  <path fill="#9fd5d7" d="M116.583 0H61.827a3.03 3.03 0 1 0 0 6.061h24.246a3.03 3.03 0 0 1 0 6.062H55.766a3.03 3.03 0 0 0 0 6.061h16.972a3.03 3.03 0 0 1 0 6.062h-8.79a3.334 3.334 0 0 0 0 6.668h11.82a3.03 3.03 0 0 1 0 6.061H50.918a3.03 3.03 0 0 0 0 6.062h32.126a3.03 3.03 0 0 1 0 6.061H63.646a3.03 3.03 0 0 0 0 6.062h52.937a6.484 6.484 0 0 0 6.465-6.466V6.465A6.484 6.484 0 0 0 116.583 0zm-12.495 36.511h-4.48L95.57 22.634 91.475 36.51h-4.452l-6.486-19.236h4.672l4.177 14.674 4.15-14.674h4.26l4.203 14.674 4.123-14.674h4.479z"/>
  <g fill="#f9c096">
    <path d="M71.728 61.221H13.941a3.03 3.03 0 0 0 0 6.062h27.277a3.03 3.03 0 0 1 0 6.061H3.031a3.03 3.03 0 1 0 0 6.062h33.338a3.03 3.03 0 1 1 0 6.061h-16.67a3.334 3.334 0 0 0 0 6.668h10.002a3.03 3.03 0 1 1 0 6.061H12.123a3.03 3.03 0 0 0 0 6.062h21.821a3.03 3.03 0 1 1 0 6.061H16.972a3.03 3.03 0 0 0 0 6.062h54.756a6.484 6.484 0 0 0 6.465-6.465v-42.23a6.484 6.484 0 0 0-6.465-6.465zM56.61 97.732l-1.512-3.737h-8.903l-1.511 3.737h-4.48l8.354-19.236h4.48l8.216 19.236z"/>
    <path d="M47.623 90.505h6.073l-3.023-7.475-3.05 7.475z"/>
  </g>
  <path fill="#f294a2" d="M132.95 61.221H90.72a6.484 6.484 0 0 0-6.465 6.465v42.23a6.484 6.484 0 0 0 6.465 6.465h42.23a6.484 6.484 0 0 0 6.464-6.465v-42.23a6.484 6.484 0 0 0-6.465-6.465zm-14.172 34.052a6.018 6.018 0 0 1-2.679 2.02 10.304 10.304 0 0 1-3.875.687 13.257 13.257 0 0 1-4.59-.825 12.388 12.388 0 0 1-3.902-2.253l1.732-3.545a11.71 11.71 0 0 0 3.352 2.116 9.02 9.02 0 0 0 3.463.796 3.82 3.82 0 0 0 2.102-.494 1.728 1.728 0 0 0 .248-2.652 3.913 3.913 0 0 0-1.292-.783q-.783-.302-2.157-.687a24.544 24.544 0 0 1-3.23-1.1 5.668 5.668 0 0 1-2.156-1.676 4.632 4.632 0 0 1-.907-2.995 5.08 5.08 0 0 1 .934-3.037 5.926 5.926 0 0 1 2.61-2.005 10.048 10.048 0 0 1 3.903-.701 13.515 13.515 0 0 1 3.902.576 13.227 13.227 0 0 1 3.408 1.54l-1.677 3.6a14.592 14.592 0 0 0-3.147-1.443 9.538 9.538 0 0 0-2.843-.536 3.35 3.35 0 0 0-1.787.412 1.338 1.338 0 0 0-.66 1.21 1.694 1.694 0 0 0 .95 1.552 14.664 14.664 0 0 0 2.926 1.113 25.292 25.292 0 0 1 3.256 1.155 5.772 5.772 0 0 1 2.185 1.73 4.8 4.8 0 0 1 .907 3.05 5.229 5.229 0 0 1-.976 3.175z"/>
  <g fill="#fed996">
    <path d="M175.74 82.906a5.794 5.794 0 0 0-2.954-.755h-3.738v11.927h3.93a5.538 5.538 0 0 0 2.872-.756 5.253 5.253 0 0 0 1.992-2.102 6.47 6.47 0 0 0 .714-3.078 6.343 6.343 0 0 0-.755-3.106 5.436 5.436 0 0 0-2.061-2.13z"/>
    <path d="M194.17 61.221h-42.229a6.484 6.484 0 0 0-6.465 6.465v42.23a6.484 6.484 0 0 0 6.465 6.465h42.23a6.484 6.484 0 0 0 6.465-6.465v-42.23a6.484 6.484 0 0 0-6.466-6.465zm-12.494 31.881a9.02 9.02 0 0 1-3.642 3.407 11.317 11.317 0 0 1-5.331 1.223h-7.997V78.496h8.162a11.043 11.043 0 0 1 5.249 1.223 8.867 8.867 0 0 1 3.586 3.408 9.692 9.692 0 0 1 1.277 4.987 9.543 9.543 0 0 1-1.304 4.988z"/>
  </g>
  <g fill="#484b56" data-name="2019">
    <path d="M149.604 134.912h9.637l-.53 3.043h-12.68l.899-5.164a5.18 5.18 0 0 1 4.887-4.15h4.312a1.426 1.426 0 0 0 1.36-1.153l.139-.876a.93.93 0 0 0-.945-1.153h-6.387l-.37-3.066h7.379a3.395 3.395 0 0 1 3.412 4.15l-.185 1.014a5.18 5.18 0 0 1-4.887 4.15h-4.334a1.445 1.445 0 0 0-1.36 1.153zM176.167 126.542l-1.29 7.263a5.156 5.156 0 0 1-4.866 4.15h-3.228a3.411 3.411 0 0 1-3.435-4.15l1.29-7.263a5.18 5.18 0 0 1 4.888-4.149h3.229a3.396 3.396 0 0 1 3.412 4.15zm-3.09.07a.93.93 0 0 0-.945-1.153h-3.112a1.445 1.445 0 0 0-1.36 1.153l-1.246 7.147a.948.948 0 0 0 .945 1.153h3.113a1.45 1.45 0 0 0 1.36-1.153zM182.493 137.955h-3.066l2.045-12.496h-1.745l1.475-3.066h4.035zM200.954 126.542l-1.29 7.263a5.154 5.154 0 0 1-4.866 4.15h-6.386l1.429-3.043h5.419a1.45 1.45 0 0 0 1.36-1.153l.346-2.052H191.5a3.396 3.396 0 0 1-3.412-4.15l.185-1.015a5.18 5.18 0 0 1 4.887-4.15h4.381a3.395 3.395 0 0 1 3.412 4.15zm-3.089.07a.93.93 0 0 0-.945-1.153h-4.266a1.445 1.445 0 0 0-1.36 1.153l-.139.876a.94.94 0 0 0 .946 1.153h3.896l1.245 1.545z"/>
  </g>
</svg>
