<svg xmlns="http://www.w3.org/2000/svg" viewBox="0 0 200.636 137.955">
  <path fill="#9fd5d7" d="M116.583 0H61.827a3.03 3.03 0 1 0 0 6.061h24.246a3.03 3.03 0 0 1 0 6.062H55.766a3.03 3.03 0 0 0 0 6.061h16.972a3.03 3.03 0 0 1 0 6.062h-8.79a3.334 3.334 0 0 0 0 6.668h11.82a3.03 3.03 0 0 1 0 6.061H50.918a3.03 3.03 0 0 0 0 6.062h32.126a3.03 3.03 0 0 1 0 6.061H63.646a3.03 3.03 0 0 0 0 6.062h52.937a6.484 6.484 0 0 0 6.465-6.466V6.465A6.484 6.484 0 0 0 116.583 0zm-12.495 36.511h-4.48L95.57 22.634 91.475 36.51h-4.452l-6.486-19.236h4.672l4.177 14.674 4.15-14.674h4.26l4.203 14.674 4.123-14.674h4.479z"/>
  <path fill="#87c9be" d="M86.073 46.067a3.04 3.04 0 0 1-3.03 3.031H68.69a21.773 21.773 0 0 0-6.345 5.755 2.986 2.986 0 0 0 1.3.307h52.938a6.484 6.484 0 0 0 6.465-6.466v-2.627z"/>
  <path fill="#85cbcb" d="M74.354 0H61.827a3.03 3.03 0 1 0 0 6.061h24.246a3.03 3.03 0 0 1 0 6.062H55.766a3.03 3.03 0 0 0 0 6.061h16.972a3.03 3.03 0 0 1 0 6.062h-8.79a3.334 3.334 0 0 0 0 6.668h11.82a2.999 2.999 0 0 1 1.797.606h7.775l-4.803-14.245h4.672l4.055 14.245h.244l4.028-14.245h4.26l3.766 13.148q.487-.162.964-.346l3.596-12.802h4.479l-3.51 10.365a21.53 21.53 0 0 0 9.24-17.639A21.32 21.32 0 0 0 113.846 0H74.354z"/>
  <path fill="#85cbcb" d="M95.57 22.634l-2.623 8.886h1.866a21.454 21.454 0 0 0 3.27-.25z"/>
  <g fill="#fff" opacity=".25">
    <path d="M109.36 16.972a16.576 16.576 0 0 0-3.138.303h4.379l-6.513 19.236h-4.48l-3.692-12.688a16.747 16.747 0 0 0-1.323 2.12l-1.83 6.203c-.045.493-.071.991-.071 1.495a16.718 16.718 0 0 0 16.669 16.67h13.473a6.4 6.4 0 0 0 .214-1.617V16.972z"/>
    <path d="M106.116 17.294a16.633 16.633 0 0 0-7.319 3.478L102 31.95z"/>
  </g>
  <path fill="#f9c096" d="M71.728 61.221H13.941a3.03 3.03 0 0 0 0 6.062h27.277a3.03 3.03 0 0 1 0 6.061H3.031a3.03 3.03 0 1 0 0 6.062h33.338a3.03 3.03 0 1 1 0 6.061h-16.67a3.334 3.334 0 0 0 0 6.668h10.002a3.03 3.03 0 1 1 0 6.061H12.123a3.03 3.03 0 0 0 0 6.062h21.821a3.03 3.03 0 1 1 0 6.061H16.972a3.03 3.03 0 0 0 0 6.062h54.756a6.484 6.484 0 0 0 6.465-6.465v-42.23a6.484 6.484 0 0 0-6.465-6.465zM56.61 97.732l-1.512-3.737h-8.903l-1.511 3.737h-4.48l8.354-19.236h4.48l8.216 19.236z"/>
  <path fill="#f9c096" d="M47.623 90.505h6.073l-3.023-7.475-3.05 7.475z"/>
  <path fill="#f6ab8d" d="M71.728 61.221H13.941a3.03 3.03 0 0 0 0 6.062h27.277a3.03 3.03 0 0 1 0 6.061H9.437a20.906 20.906 0 0 0 3.122 6.062h23.81a3.03 3.03 0 1 1 0 6.061h-16.67c-.025 0-.05.003-.077.004a20.72 20.72 0 0 0 9.727 2.42h15.128l4.08-9.395h4.48l4.013 9.396h21.143V67.686a6.484 6.484 0 0 0-6.465-6.465z"/>
  <path fill="#f6ab8d" d="M50.673 83.03l-1.984 4.862h3.95l-1.966-4.862z"/>
  <path fill="#fdd39d" d="M44.243 116.38a14.714 14.714 0 0 0 1.17-5.758A14.902 14.902 0 0 0 32.624 95.92a3.035 3.035 0 0 1-2.924 2.277H12.123a3.03 3.03 0 0 0 0 6.062h21.821a3.03 3.03 0 1 1 0 6.061H16.972a3.03 3.03 0 0 0 0 6.062h27.271z"/>
  <g fill="#fff" opacity=".16">
    <path d="M78.193 67.89l-.049-.001a46.681 46.681 0 0 0-45.518 36.369h1.318a3.03 3.03 0 1 1 0 6.061h-2.273a47.18 47.18 0 0 0-.2 4.243c0 .61.022 1.215.046 1.819h40.211a6.484 6.484 0 0 0 6.465-6.466zM56.61 97.732l-1.512-3.737h-8.903l-1.511 3.737h-4.48l8.354-19.236h4.48l8.216 19.236z"/>
    <path d="M47.623 90.505h6.073l-3.023-7.475-3.05 7.475z"/>
  </g>
  <path fill="#f294a2" d="M132.95 61.221H90.72a6.484 6.484 0 0 0-6.465 6.465v42.23a6.484 6.484 0 0 0 6.465 6.465h42.23a6.484 6.484 0 0 0 6.464-6.465v-42.23a6.484 6.484 0 0 0-6.465-6.465zm-14.172 34.052a6.018 6.018 0 0 1-2.679 2.02 10.304 10.304 0 0 1-3.875.687 13.257 13.257 0 0 1-4.59-.825 12.388 12.388 0 0 1-3.902-2.253l1.732-3.545a11.71 11.71 0 0 0 3.352 2.116 9.02 9.02 0 0 0 3.463.796 3.82 3.82 0 0 0 2.102-.494 1.728 1.728 0 0 0 .248-2.652 3.913 3.913 0 0 0-1.292-.783q-.783-.302-2.157-.687a24.544 24.544 0 0 1-3.23-1.1 5.668 5.668 0 0 1-2.156-1.676 4.632 4.632 0 0 1-.907-2.995 5.08 5.08 0 0 1 .934-3.037 5.926 5.926 0 0 1 2.61-2.005 10.048 10.048 0 0 1 3.903-.701 13.515 13.515 0 0 1 3.902.576 13.227 13.227 0 0 1 3.408 1.54l-1.677 3.6a14.592 14.592 0 0 0-3.147-1.443 9.538 9.538 0 0 0-2.843-.536 3.35 3.35 0 0 0-1.787.412 1.338 1.338 0 0 0-.66 1.21 1.694 1.694 0 0 0 .95 1.552 14.664 14.664 0 0 0 2.926 1.113 25.292 25.292 0 0 1 3.256 1.155 5.772 5.772 0 0 1 2.185 1.73 4.8 4.8 0 0 1 .907 3.05 5.229 5.229 0 0 1-.976 3.175z"/>
  <path fill="#f4a3b0" d="M84.255 67.686v19.787a18.372 18.372 0 0 0 3.89.419h18.687a5.966 5.966 0 0 1-1.038-1.015 4.632 4.632 0 0 1-.907-2.995 5.08 5.08 0 0 1 .934-3.037 5.926 5.926 0 0 1 2.61-2.005 10.048 10.048 0 0 1 3.903-.701 13.515 13.515 0 0 1 3.902.576 13.227 13.227 0 0 1 3.408 1.54l-1.677 3.6a14.592 14.592 0 0 0-3.147-1.443 9.538 9.538 0 0 0-2.843-.536 3.35 3.35 0 0 0-1.787.412 1.338 1.338 0 0 0-.66 1.21 1.694 1.694 0 0 0 .95 1.552 14.664 14.664 0 0 0 2.926 1.113 25.292 25.292 0 0 1 3.256 1.155 5.658 5.658 0 0 1 .6.316 18.554 18.554 0 0 0 15.436-18.23 18.314 18.314 0 0 0-1.926-8.183H90.72a6.484 6.484 0 0 0-6.465 6.465z"/>
  <path fill="#f4a7a5" d="M119.751 92.135a5.22 5.22 0 0 1-.973 3.138 6.018 6.018 0 0 1-2.679 2.02 10.304 10.304 0 0 1-3.875.687 13.257 13.257 0 0 1-4.59-.825 12.388 12.388 0 0 1-3.902-2.253l1.352-2.767h-1.178a18.542 18.542 0 0 0-18.488 18.487 18.388 18.388 0 0 0 .322 3.404 6.46 6.46 0 0 0 4.98 2.355h42.23a6.484 6.484 0 0 0 6.464-6.465V92.135z"/>
  <path fill="#f4a7a5" d="M108.816 93.473a9.02 9.02 0 0 0 3.463.796 3.82 3.82 0 0 0 2.102-.494 1.605 1.605 0 0 0 .756-1.429 1.919 1.919 0 0 0-.02-.211h-8.68a11.953 11.953 0 0 0 2.38 1.338z"/>
  <g fill="#fff" opacity=".13">
    <path d="M118.778 95.273a6.018 6.018 0 0 1-2.679 2.02 10.304 10.304 0 0 1-3.875.687 13.257 13.257 0 0 1-4.59-.825 12.388 12.388 0 0 1-3.902-2.253l1.732-3.545a11.71 11.71 0 0 0 3.352 2.116 9.02 9.02 0 0 0 3.463.796 3.82 3.82 0 0 0 2.102-.494 1.728 1.728 0 0 0 .248-2.652 3.913 3.913 0 0 0-1.292-.783q-.783-.302-2.157-.687a24.544 24.544 0 0 1-3.23-1.1 5.668 5.668 0 0 1-2.156-1.676 4.632 4.632 0 0 1-.907-2.995 5.08 5.08 0 0 1 .934-3.037 5.87 5.87 0 0 1 2.444-1.924A46.46 46.46 0 0 0 84.255 68.3v41.616a6.484 6.484 0 0 0 6.465 6.465h34.052c.023-.604.046-1.209.046-1.819a46.454 46.454 0 0 0-5.175-21.351 4.965 4.965 0 0 1-.865 2.062z"/>
    <path d="M110.48 85.05a14.664 14.664 0 0 0 2.926 1.113c.898.262 1.68.525 2.362.787a46.903 46.903 0 0 0-4.295-5.05 2.927 2.927 0 0 0-1.283.388 1.338 1.338 0 0 0-.66 1.21 1.694 1.694 0 0 0 .95 1.552z"/>
  </g>
  <path fill="#fed996" d="M175.74 82.906a5.794 5.794 0 0 0-2.954-.755h-3.738v11.927h3.93a5.538 5.538 0 0 0 2.872-.756 5.253 5.253 0 0 0 1.992-2.102 6.47 6.47 0 0 0 .714-3.078 6.343 6.343 0 0 0-.755-3.106 5.436 5.436 0 0 0-2.061-2.13z"/>
  <path fill="#fed996" d="M194.17 61.221h-42.229a6.484 6.484 0 0 0-6.465 6.465v42.23a6.484 6.484 0 0 0 6.465 6.465h42.23a6.484 6.484 0 0 0 6.465-6.465v-42.23a6.484 6.484 0 0 0-6.466-6.465zm-12.494 31.881a9.02 9.02 0 0 1-3.642 3.407 11.317 11.317 0 0 1-5.331 1.223h-7.997V78.496h8.162a11.043 11.043 0 0 1 5.249 1.223 8.867 8.867 0 0 1 3.586 3.408 9.692 9.692 0 0 1 1.277 4.987 9.543 9.543 0 0 1-1.304 4.988z"/>
  <path fill="#fbc898" d="M160.58 110.622a18.555 18.555 0 0 0-15.104-18.17v17.464a6.484 6.484 0 0 0 6.465 6.465h7.71a18.321 18.321 0 0 0 .93-5.759z"/>
  <path fill="#fac182" d="M194.17 61.221h-29.707a34.2 34.2 0 0 0 .55 17.275h7.855a11.043 11.043 0 0 1 5.249 1.223 8.867 8.867 0 0 1 3.586 3.408 9.692 9.692 0 0 1 1.277 4.987 9.543 9.543 0 0 1-1.304 4.988 9.02 9.02 0 0 1-3.642 3.407c-.057.03-.116.055-.173.084a34.081 34.081 0 0 0 19.998 6.453c.936 0 1.86-.049 2.777-.122V67.686a6.484 6.484 0 0 0-6.466-6.465z"/>
  <path fill="#fac182" d="M175.74 82.906a5.794 5.794 0 0 0-2.954-.755h-3.738v5.153a34.405 34.405 0 0 0 5.493 6.568 5.313 5.313 0 0 0 1.309-.55 5.253 5.253 0 0 0 1.992-2.102 6.47 6.47 0 0 0 .714-3.078 6.343 6.343 0 0 0-.755-3.106 5.436 5.436 0 0 0-2.061-2.13z"/>
  <g fill="#fff" opacity=".17">
    <path d="M169.048 88.813v5.265h3.93a5.538 5.538 0 0 0 2.872-.756 5.253 5.253 0 0 0 1.992-2.102 6.47 6.47 0 0 0 .714-3.078c0-.086-.011-.166-.014-.25h-3.414a20.44 20.44 0 0 0-6.08.921z"/>
    <path d="M182.974 87.892c.001.074.006.147.006.222a9.543 9.543 0 0 1-1.304 4.988 9.02 9.02 0 0 1-3.642 3.407 11.317 11.317 0 0 1-5.331 1.223h-7.997v-6.986a20.648 20.648 0 0 0-10.187 17.755 20.416 20.416 0 0 0 1.578 7.88h38.073a6.484 6.484 0 0 0 6.466-6.465V87.892z"/>
  </g>
  <path fill="#484b56" d="M149.604 134.912h9.637l-.53 3.043h-12.68l.899-5.164a5.18 5.18 0 0 1 4.887-4.15h4.312a1.426 1.426 0 0 0 1.36-1.153l.139-.876a.93.93 0 0 0-.945-1.153h-6.387l-.37-3.066h7.379a3.395 3.395 0 0 1 3.412 4.15l-.185 1.014a5.18 5.18 0 0 1-4.887 4.15h-4.334a1.445 1.445 0 0 0-1.36 1.153zM176.167 126.542l-1.29 7.263a5.156 5.156 0 0 1-4.866 4.15h-3.228a3.411 3.411 0 0 1-3.435-4.15l1.29-7.263a5.18 5.18 0 0 1 4.888-4.149h3.229a3.396 3.396 0 0 1 3.412 4.15zm-3.09.07a.93.93 0 0 0-.945-1.153h-3.112a1.445 1.445 0 0 0-1.36 1.153l-1.246 7.147a.948.948 0 0 0 .945 1.153h3.113a1.45 1.45 0 0 0 1.36-1.153zM182.493 137.955h-3.066l2.045-12.496h-1.745l1.475-3.066h4.035zM200.954 126.542l-1.29 7.263a5.154 5.154 0 0 1-4.866 4.15h-6.386l1.429-3.043h5.419a1.45 1.45 0 0 0 1.36-1.153l.346-2.052H191.5a3.396 3.396 0 0 1-3.412-4.15l.185-1.015a5.18 5.18 0 0 1 4.887-4.15h4.381a3.395 3.395 0 0 1 3.412 4.15zm-3.089.07a.93.93 0 0 0-.945-1.153h-4.266a1.445 1.445 0 0 0-1.36 1.153l-.139.876a.94.94 0 0 0 .946 1.153h3.896l1.245 1.545z"/>
</svg>
